<?xml version="1.0" standalone="no"?>
<!DOCTYPE svg PUBLIC "-//W3C//DTD SVG 20010904//EN"
 "http://www.w3.org/TR/2001/REC-SVG-20010904/DTD/svg10.dtd">
<svg version="1.0" xmlns="http://www.w3.org/2000/svg"
 width="1280.000000pt" height="1280.000000pt" viewBox="0 0 1280.000000 1280.000000"
 preserveAspectRatio="xMidYMid meet">
<metadata>
Created by potrace 1.14, written by Peter Selinger 2001-2017
</metadata>
<g transform="translate(0.000000,1280.000000) scale(0.100000,-0.100000)"
fill="#000000" stroke="none">
<path d="M6075 12794 c-22 -2 -107 -8 -190 -15 -1803 -132 -3505 -1071 -4609
-2544 -644 -859 -1058 -1856 -1211 -2915 -49 -343 -59 -498 -60 -910 0 -378 6
-495 41 -790 90 -764 340 -1553 706 -2233 470 -875 1132 -1628 1933 -2199 564
-402 1215 -722 1870 -918 427 -128 843 -206 1340 -252 212 -20 834 -17 1060 5
708 69 1334 225 1957 489 199 84 579 279 773 395 711 427 1316 970 1819 1633
696 916 1127 1993 1256 3140 33 294 43 523 37 840 -8 420 -44 756 -123 1150
-422 2113 -1912 3892 -3924 4685 -570 224 -1133 358 -1765 420 -149 15 -809
29 -910 19z m3503 -2936 c14 -17 94 -560 86 -581 -7 -20 -12 -21 -169 -46
l-119 -18 -96 101 c-332 349 -428 451 -425 455 7 6 628 99 671 100 23 1 46 -5
52 -11z m-1213 -477 c145 -151 263 -276 262 -278 -3 -2 -334 -53 -349 -53 -8
0 -531 550 -527 554 6 5 322 54 337 52 7 0 131 -124 277 -275z m-1107 -161
c144 -148 262 -273 262 -278 0 -4 -75 -18 -166 -32 l-165 -23 -49 49 c-114
117 -470 497 -470 503 0 7 248 47 301 50 21 1 71 -46 287 -269z m-1083 -165
c147 -152 266 -277 264 -279 -2 -1 -74 -13 -160 -26 l-155 -23 -95 99 c-207
215 -424 447 -424 452 0 3 56 14 125 24 69 10 132 20 140 22 8 2 20 4 26 5 6
0 131 -123 279 -274z m-1140 -83 c105 -108 225 -233 267 -277 l76 -81 -556
-83 c-306 -45 -567 -85 -579 -88 -18 -4 -9 -16 70 -86 l90 -82 499 -5 498 -5
-155 -217 c-85 -119 -155 -218 -155 -220 0 -2 169 -4 375 -5 l375 -2 156 225
155 224 166 0 c131 0 163 -3 156 -12 -35 -45 -303 -426 -303 -431 0 -3 168 -6
373 -6 l373 -2 157 226 158 225 174 0 174 0 -155 -216 c-85 -119 -154 -220
-154 -225 0 -5 153 -9 370 -9 l370 0 43 58 c23 32 94 133 157 225 l115 166
183 1 c100 0 182 -1 182 -2 0 -2 -69 -100 -154 -218 -105 -146 -151 -217 -143
-222 7 -4 175 -8 374 -8 l361 1 157 224 158 225 141 0 c97 0 146 -4 154 -12 9
-9 12 -89 12 -300 l0 -288 -25 -16 -25 -16 0 -2354 0 -2354 -3225 0 -3225 0 0
2355 0 2354 -72 3 -73 3 -6 370 c-6 366 -6 372 -42 590 -41 248 -43 268 -22
285 8 7 221 43 472 81 252 37 649 97 883 133 234 35 432 65 440 65 8 1 101
-88 205 -197z"/>
<path d="M3324 8625 c-32 -49 11 -106 69 -92 32 9 51 51 36 80 -16 29 -28 37
-61 37 -18 0 -33 -8 -44 -25z"/>
<path d="M3332 7887 c-27 -29 -28 -58 -2 -82 57 -52 137 18 89 78 -25 33 -58
34 -87 4z"/>
<path d="M4267 7892 c-46 -51 8 -131 66 -101 28 15 37 28 37 57 0 51 -70 81
-103 44z"/>
<path d="M3430 6870 l0 -70 995 0 995 0 0 -545 0 -545 -962 -1 c-530 -1 -976
-2 -993 -3 -30 -1 -30 -1 -33 -68 l-3 -68 1941 0 1940 0 0 -275 0 -275 -1940
0 -1940 0 0 -70 0 -70 1940 0 1940 0 0 -275 0 -275 -1940 0 -1941 0 3 -67 3
-68 3038 -3 3037 -2 0 70 0 70 -1030 0 -1030 0 0 275 0 275 1030 0 1030 0 0
70 0 70 -1030 0 -1030 0 2 273 3 272 1028 3 1028 2 -3 68 -3 67 -887 3 -888 2
0 545 0 545 890 0 890 0 0 70 0 70 -3040 0 -3040 0 0 -70z m4160 -615 l0 -545
-1015 0 -1015 0 0 545 0 545 1015 0 1015 0 0 -545z"/>
<path d="M3430 3590 l0 -70 3040 0 3040 0 0 70 0 70 -3040 0 -3040 0 0 -70z"/>
</g>
</svg>
